<svg xmlns="http://www.w3.org/2000/svg" viewBox="0 0 20 20">
<path fill-rule="evenodd" clip-rule="evenodd" d="M16.8465 4.8476C17.1802 4.51454 17.627 4.31879 18.0985 4.29916C18.3453 4.29112 18.5912 4.33272 18.8216 4.42149C19.052 4.51026 19.2622 4.64438 19.4396 4.81587C19.617 4.98736 19.758 5.19273 19.8543 5.41974C19.9505 5.64675 20.0001 5.89077 20 6.13728C20.0013 6.52261 19.8826 6.89882 19.6602 7.21383C19.5054 7.43321 19.3056 7.61535 19.0756 7.7491C18.8947 7.85436 18.759 8.03549 18.759 8.24485V10.3096C18.759 10.8547 18.3134 11.2966 17.7637 11.2966H15.9302C15.6575 11.2966 15.4364 11.5177 15.4364 11.7904V18.4015C15.4364 18.8254 15.2677 19.232 14.9674 19.5317C14.6671 19.8315 14.2598 19.9999 13.8351 19.9999H3.44049C3.22947 20.0026 3.02004 19.963 2.82455 19.8837C2.62906 19.8043 2.45147 19.6867 2.30224 19.5377C2.15302 19.3887 2.03517 19.2115 1.95565 19.0163C1.87613 18.8212 1.83655 18.6121 1.83924 18.4015V1.59837C1.83924 1.17446 2.00794 0.767904 2.30823 0.468151C2.60853 0.168399 3.01581 0 3.44049 0H13.8351C14.2598 0 14.6671 0.168399 14.9674 0.468151C15.2677 0.767904 15.4364 1.17446 15.4364 1.59837V9.35645C15.4364 9.62916 15.6575 9.85023 15.9302 9.85023H17.0643C17.337 9.85023 17.558 9.62916 17.558 9.35645V8.24628C17.558 8.03622 17.4215 7.85461 17.2394 7.74992C17.0019 7.61337 16.7958 7.4259 16.637 7.19942C16.4107 6.87673 16.2918 6.49118 16.2971 6.09732C16.3167 5.62671 16.5128 5.18066 16.8465 4.8476ZM7.74382 9.47945C7.47111 9.47945 7.25004 9.70052 7.25004 9.97323V12.2702C7.25004 12.5429 7.47111 12.764 7.74382 12.764H9.29825C9.57095 12.764 9.79202 12.5429 9.79202 12.2702V9.97323C9.79202 9.70052 9.57095 9.47945 9.29825 9.47945H7.74382ZM3.94085 9.47945C3.66814 9.47945 3.44707 9.70052 3.44707 9.97323V12.2702C3.44707 12.5429 3.66814 12.764 3.94085 12.764H5.49528C5.76799 12.764 5.98906 12.5429 5.98906 12.2702V9.97323C5.98906 9.70052 5.76799 9.47945 5.49528 9.47945H3.94085ZM13.1012 7.62541C13.3739 7.62541 13.595 7.40434 13.595 7.13163V2.41521C13.595 2.1425 13.3739 1.92143 13.1012 1.92143H4.15444C3.88173 1.92143 3.66066 2.1425 3.66066 2.4152V7.13163C3.66066 7.40434 3.88173 7.62541 4.15444 7.62541H13.1012ZM13.1012 12.764C13.3739 12.764 13.595 12.5429 13.595 12.2702V9.97323C13.595 9.70052 13.3739 9.47945 13.1012 9.47945H11.5468C11.2741 9.47945 11.053 9.70052 11.053 9.97323V12.2702C11.053 12.5429 11.2741 12.764 11.5468 12.764H13.1012ZM3.94088 15.2964C3.71076 15.2964 3.52421 15.4829 3.52421 15.713C3.52421 15.9431 3.71076 16.1297 3.94088 16.1297H13.1783C13.4084 16.1297 13.595 15.9431 13.595 15.713C13.595 15.4829 13.4084 15.2964 13.1783 15.2964H3.94088Z"/>
</svg>