<svg xmlns="http://www.w3.org/2000/svg" viewBox="0 0 20 20">
  <path d="M14.5941 0H5.4061C4.00301 0 2.91675 1.20773 2.91675 2.657V17.343C2.91675 18.7923 4.04827 20 5.4061 20H14.5941C15.9519 20 17.0834 18.7923 17.0834 17.343V2.657C17.0834 1.20773 15.9519 0 14.5941 0ZM5.27032 4.34783C4.86297 4.25121 4.5914 3.91304 4.5914 3.47826C4.5914 2.56039 5.6324 1.78744 5.94923 1.5942C5.99449 1.54589 6.08501 1.54589 6.13027 1.5942C6.4471 1.78744 7.4881 2.56039 7.4881 3.47826C7.4881 3.91304 7.21654 4.25121 6.85445 4.34783C6.53762 4.39614 6.26606 4.29952 6.08501 4.05797C5.85871 4.29952 5.58714 4.39614 5.27032 4.34783ZM10.2038 13.5749C10.068 13.6715 9.88693 13.6715 9.79641 13.5749C8.98171 13.0435 6.26606 11.0145 6.26606 8.64734C6.26606 7.53623 6.94497 6.61836 7.94071 6.37681C8.75541 6.23188 9.52484 6.57005 9.97745 7.14976C10.4301 6.52174 11.1995 6.18357 12.0595 6.37681C13.0552 6.57005 13.7794 7.53623 13.7341 8.64734C13.6888 11.0145 10.9732 13.0435 10.2038 13.5749ZM14.0057 18.4058C13.9604 18.4541 13.8699 18.4541 13.8246 18.4058C13.5078 18.2126 12.4668 17.4396 12.4668 16.5217C12.4668 16.087 12.7384 15.7488 13.1005 15.6522C13.4173 15.6039 13.6888 15.7005 13.8699 15.942C14.0509 15.7005 14.3678 15.5556 14.6846 15.6522C15.0919 15.7488 15.3182 16.087 15.3182 16.5217C15.3635 17.4396 14.3225 18.2126 14.0057 18.4058Z" />
</svg>