<svg xmlns="http://www.w3.org/2000/svg" viewBox="0 0 20 20">
  <g clip-path="url(#clip0_39978_9961)">
    <path d="M0.515038 6.38928C0.0486917 7.94573 1.51283 8.90601 1.51283 8.90601C3.37453 10.127 5.5209 10.1164 7.65109 9.96154L7.66396 10.041C5.72392 10.6677 3.60293 11.3768 2.42492 13.1704C2.06082 13.7247 1.8111 14.4275 1.9321 15.0965C2.04243 15.7066 2.45104 16.2557 3.00381 16.5364C3.55659 16.8173 4.24103 16.8236 4.79858 16.5525L4.78902 16.6007C4.78902 16.6007 4.59483 18.2006 6.13142 18.7294C7.66764 19.2583 8.68676 17.8346 8.68676 17.8346C9.71692 16.3948 10.3683 14.6327 10.561 12.8975C11.4631 15.1384 11.9324 15.5121 11.5426 19.5546C11.4996 19.7528 11.6257 19.9489 11.8243 19.9919C11.8504 19.9978 11.8769 20 11.9027 20C12.0718 20 12.2245 19.8827 12.262 19.7102C12.7555 15.657 12.1726 14.8593 11.23 12.5658C12.1869 14.0354 13.3977 15.337 15.0692 16.0608C15.0692 16.0608 16.6761 16.7567 17.7206 15.5121C18.7651 14.2675 17.775 12.9961 17.775 12.9961L17.7419 12.9597C18.3594 12.9045 18.9431 12.5467 19.2722 12.0215C19.6014 11.4959 19.6691 10.8152 19.4495 10.2352C19.2086 9.59927 18.6327 9.12557 18.035 8.83797C16.1016 7.90711 13.9184 8.39148 11.9324 8.85305L11.9026 8.77839C13.8085 7.81406 15.654 6.71808 16.6209 4.71294C16.6209 4.71294 17.3815 3.13589 16.1803 2.04174C14.9791 0.947594 13.6684 1.88543 13.6684 1.88543L13.6308 1.91706C13.6007 1.29772 13.2671 0.700445 12.7555 0.34995C12.2439 -0.000545359 11.5661 -0.0954324 10.978 0.100227C10.3329 0.315011 9.83644 0.871096 9.52457 1.4566C8.51611 3.35067 8.91148 5.55184 9.29213 7.55478L9.2594 7.56802C8.55436 5.65482 7.75995 3.56436 5.91995 2.46028C5.35136 2.11898 4.63896 1.89794 3.97549 2.04579C3.37012 2.18076 2.83831 2.61143 2.58013 3.17488C2.32195 3.73868 2.34364 4.42276 2.63677 4.96891L2.58822 4.96119C2.58785 4.96192 0.981384 4.83283 0.515038 6.38928Z" fill="black"/>
  </g>
  <defs>
    <clipPath id="clip0_39978_9961">
      <rect width="20" height="20"/>
    </clipPath>
  </defs>
</svg>